<svg xmlns="http://www.w3.org/2000/svg" width="22" height="22" viewBox="0 0 22 22" fill="none">
  <path d="M5.25694 19.8H0.215496C0.113648 19.8 0.045115 19.6957 0.0855457 19.6022L7.81311 1.7354C7.83552 1.68358 7.88659 1.65002 7.94306 1.65002H12.9845C13.0864 1.65002 13.1549 1.75433 13.1145 1.84781L5.38689 19.7146C5.36448 19.7665 5.31341 19.8 5.25694 19.8Z" fill="url(#paint0_linear_636_16)"/>
  <path d="M12.9996 19.8H17.9342C18.0361 19.8 18.1047 19.6956 18.0641 19.6021L16.2801 15.4853C16.2576 15.4335 16.2066 15.4 16.1502 15.4H11.2156C11.1137 15.4 11.0451 15.5044 11.0857 15.5979L12.8697 19.7147C12.8922 19.7665 12.9432 19.8 12.9996 19.8Z" fill="url(#paint1_linear_636_16)"/>
  <path d="M16.6829 19.8H21.7794C21.8825 19.8 21.951 19.6933 21.9081 19.5995L16.9959 8.88264C16.9728 8.83231 16.9225 8.80005 16.8671 8.80005H11.7706C11.6675 8.80005 11.599 8.90684 11.6419 9.00063L16.5541 19.7175C16.5772 19.7678 16.6275 19.8 16.6829 19.8Z" fill="url(#paint2_linear_636_16)"/>
  <defs>
    <linearGradient id="paint0_linear_636_16" x1="6.6" y1="1.65002" x2="6.6" y2="19.8" gradientUnits="userSpaceOnUse">
      <stop stop-color="#06AED4"/>
      <stop offset="1" stop-color="#73E2A3"/>
    </linearGradient>
    <linearGradient id="paint1_linear_636_16" x1="14.5749" y1="15.4" x2="14.5749" y2="19.8" gradientUnits="userSpaceOnUse">
      <stop stop-color="#06AED4"/>
      <stop offset="1" stop-color="#73E2A3"/>
    </linearGradient>
    <linearGradient id="paint2_linear_636_16" x1="16.775" y1="8.80005" x2="16.775" y2="19.8" gradientUnits="userSpaceOnUse">
      <stop stop-color="#06AED4"/>
      <stop offset="1" stop-color="#73E2A3"/>
    </linearGradient>
  </defs>
</svg>