<svg xmlns="http://www.w3.org/2000/svg" width="24" height="24" viewBox="0 0 24 24" fill="none">
  <path d="M23.6408 14.9029C22.0379 21.3315 15.5261 25.2438 9.09602 23.6407C2.66859 22.038 -1.24421 15.5266 0.359461 9.09838C1.96163 2.66907 8.47346 -1.24364 14.9016 0.359095C21.3313 1.96183 25.2437 8.47401 23.6408 14.9029Z" fill="#F7931A"/>
  <path d="M17.2914 10.2907C17.5303 8.69398 16.3144 7.83561 14.6518 7.26299L15.1911 5.10001L13.8744 4.77189L13.3493 6.87786C13.0032 6.79162 12.6476 6.71025 12.2943 6.62962L12.8231 4.50976L11.5071 4.18164L10.9674 6.34387C10.6809 6.27862 10.3996 6.21413 10.1266 6.14625L10.1281 6.1395L8.31217 5.68612L7.96189 7.09236C7.96189 7.09236 8.93886 7.31623 8.91823 7.33011C9.45154 7.46323 9.54792 7.8161 9.53179 8.09585L8.91748 10.56C8.95423 10.5693 9.00187 10.5828 9.05438 10.6038C9.0105 10.593 8.96362 10.581 8.91524 10.5693L8.05414 14.0212C7.98888 14.1832 7.8235 14.4262 7.45071 14.3339C7.46383 14.353 6.4936 14.095 6.4936 14.095L5.8399 15.6022L7.55346 16.0293C7.87225 16.1091 8.18465 16.1928 8.49218 16.2715L7.94726 18.4592L9.26252 18.7874L9.8022 16.6229C10.1615 16.7204 10.5103 16.8104 10.8516 16.8951L10.3138 19.0495L11.6305 19.3776L12.1755 17.194C14.4208 17.6189 16.1092 17.4475 16.8199 15.4169C17.3926 13.7819 16.7914 12.8388 15.6101 12.2238C16.4704 12.0254 17.1185 11.4596 17.2914 10.2907ZM14.2828 14.509C13.8759 16.144 11.1227 15.2602 10.2301 15.0385L10.9532 12.1402C11.8458 12.3629 14.7081 12.8039 14.2828 14.509ZM14.6901 10.2671C14.3188 11.7543 12.0273 10.9987 11.284 10.8134L11.9396 8.18473C12.6829 8.36998 15.0768 8.71572 14.6901 10.2671Z" fill="white"/>
</svg>