<svg width="94" height="30" viewBox="0 0 94 30" fill="none" xmlns="http://www.w3.org/2000/svg">
<path d="M5.25694 19.8H0.215496C0.113648 19.8 0.045115 19.6957 0.0855457 19.6022L7.81311 1.7354C7.83552 1.68358 7.88659 1.65002 7.94306 1.65002H12.9845C13.0864 1.65002 13.1549 1.75433 13.1145 1.84781L5.38689 19.7146C5.36448 19.7665 5.31341 19.8 5.25694 19.8Z" fill="url(#paint0_linear_636_15)"/>
<path d="M12.9996 19.8H17.9342C18.0361 19.8 18.1047 19.6956 18.0641 19.6021L16.2801 15.4853C16.2576 15.4335 16.2066 15.4 16.1502 15.4H11.2156C11.1137 15.4 11.0451 15.5044 11.0857 15.5979L12.8697 19.7147C12.8922 19.7665 12.9432 19.8 12.9996 19.8Z" fill="url(#paint1_linear_636_15)"/>
<path d="M16.6829 19.8H21.7794C21.8825 19.8 21.951 19.6933 21.9081 19.5995L16.9959 8.88264C16.9728 8.83231 16.9225 8.80005 16.8671 8.80005H11.7706C11.6675 8.80005 11.599 8.90684 11.6419 9.00063L16.5541 19.7175C16.5772 19.7678 16.6275 19.8 16.6829 19.8Z" fill="url(#paint2_linear_636_15)"/>
<path d="M30.5203 7.82655C31.9221 7.82655 33.0549 8.27256 33.9186 9.1646C34.7823 10.0425 35.2141 11.2743 35.2141 12.8602V19.7628H32.2407V13.2637C32.2407 12.3292 32.0071 11.6142 31.5398 11.1186C31.0726 10.6088 30.4354 10.354 29.6283 10.354C28.8071 10.354 28.1557 10.6088 27.6743 11.1186C27.2071 11.6142 26.9734 12.3292 26.9734 13.2637V19.7628H24V7.99646H26.9734V9.46194C27.3699 8.95221 27.8726 8.55575 28.4814 8.27257C29.1044 7.97522 29.7841 7.82655 30.5203 7.82655Z" fill="white"/>
<path d="M43.2665 19.954C42.1338 19.954 41.1143 19.7062 40.2081 19.2106C39.3019 18.7009 38.5869 17.9858 38.063 17.0655C37.5533 16.1451 37.2984 15.0832 37.2984 13.8796C37.2984 12.6761 37.5603 11.6142 38.0842 10.6938C38.6223 9.77345 39.3515 9.06549 40.2718 8.56991C41.1922 8.06018 42.2187 7.80531 43.3515 7.80531C44.4842 7.80531 45.5108 8.06018 46.4311 8.56991C47.3515 9.06549 48.0736 9.77345 48.5975 10.6938C49.1355 11.6142 49.4046 12.6761 49.4046 13.8796C49.4046 15.0832 49.1285 16.1451 48.5763 17.0655C48.0382 17.9858 47.3019 18.7009 46.3674 19.2106C45.4471 19.7062 44.4134 19.954 43.2665 19.954ZM43.2665 17.3628C43.8046 17.3628 44.3072 17.2354 44.7745 16.9805C45.2559 16.7115 45.6382 16.315 45.9214 15.7911C46.2046 15.2673 46.3462 14.6301 46.3462 13.8796C46.3462 12.7611 46.0488 11.9044 45.4541 11.3097C44.8736 10.7009 44.1586 10.3965 43.309 10.3965C42.4594 10.3965 41.7444 10.7009 41.1639 11.3097C40.5975 11.9044 40.3143 12.7611 40.3143 13.8796C40.3143 14.9982 40.5904 15.8619 41.1426 16.4708C41.709 17.0655 42.417 17.3628 43.2665 17.3628Z" fill="white"/>
<path d="M55.0477 10.4389V16.131C55.0477 16.5274 55.1397 16.8177 55.3238 17.0018C55.522 17.1717 55.8477 17.2566 56.3007 17.2566H57.6813V19.7628H55.8123C53.3061 19.7628 52.053 18.5451 52.053 16.1097V10.4389H50.6512V7.99646H52.053V5.08673H55.0477V7.99646H57.6813V10.4389H55.0477Z" fill="white"/>
<path d="M66.4465 7.82655C67.3385 7.82655 68.1314 8.02478 68.8252 8.42124C69.519 8.80354 70.0571 9.37699 70.4394 10.1416C70.8359 10.892 71.0341 11.7982 71.0341 12.8602V19.7628H68.0606V13.2637C68.0606 12.3292 67.827 11.6142 67.3598 11.1186C66.8925 10.6088 66.2553 10.354 65.4482 10.354C64.627 10.354 63.9757 10.6088 63.4943 11.1186C63.027 11.6142 62.7934 12.3292 62.7934 13.2637V19.7628H59.8199V4.04602H62.7934V9.46194C63.1757 8.95221 63.6854 8.55575 64.3226 8.27257C64.9598 7.97522 65.6677 7.82655 66.4465 7.82655Z" fill="white"/>
<path d="M84.7997 13.6248C84.7997 14.0496 84.7714 14.4319 84.7148 14.7717H76.113C76.1838 15.6212 76.4812 16.2867 77.005 16.7681C77.5289 17.2495 78.1732 17.4903 78.9378 17.4903C80.0422 17.4903 80.828 17.0159 81.2953 16.0672H84.5024C84.1626 17.2 83.5112 18.1345 82.5484 18.8708C81.5856 19.5929 80.4033 19.954 79.0015 19.954C77.8688 19.954 76.8493 19.7062 75.9431 19.2106C75.0511 18.7009 74.3502 17.9858 73.8404 17.0655C73.3449 16.1451 73.0971 15.0832 73.0971 13.8796C73.0971 12.6619 73.3449 11.5929 73.8404 10.6726C74.336 9.75221 75.0298 9.04425 75.9219 8.54867C76.8139 8.0531 77.8404 7.80531 79.0015 7.80531C80.1201 7.80531 81.1183 8.04602 81.9962 8.52743C82.8882 9.00885 83.575 9.69557 84.0564 10.5876C84.5519 11.4655 84.7997 12.4779 84.7997 13.6248ZM81.7201 12.7752C81.7059 12.0106 81.4298 11.4018 80.8918 10.9487C80.3537 10.4814 79.6953 10.2478 78.9165 10.2478C78.1803 10.2478 77.5573 10.4743 77.0475 10.9274C76.5519 11.3664 76.2475 11.9823 76.1343 12.7752H81.7201Z" fill="white"/>
<path d="M89.9435 9.82301C90.3258 9.2 90.8214 8.7115 91.4303 8.35752C92.0533 8.00354 92.7612 7.82655 93.5541 7.82655V10.9487H92.7683C91.8338 10.9487 91.1258 11.1681 90.6444 11.6071C90.1772 12.046 89.9435 12.8106 89.9435 13.9009V19.7628H86.9701V7.99646H89.9435V9.82301Z" fill="white"/>
<defs>
<linearGradient id="paint0_linear_636_15" x1="6.6" y1="1.65002" x2="6.6" y2="19.8" gradientUnits="userSpaceOnUse">
<stop stop-color="#06AED4"/>
<stop offset="1" stop-color="#73E2A3"/>
</linearGradient>
<linearGradient id="paint1_linear_636_15" x1="14.5749" y1="15.4" x2="14.5749" y2="19.8" gradientUnits="userSpaceOnUse">
<stop stop-color="#06AED4"/>
<stop offset="1" stop-color="#73E2A3"/>
</linearGradient>
<linearGradient id="paint2_linear_636_15" x1="16.775" y1="8.80005" x2="16.775" y2="19.8" gradientUnits="userSpaceOnUse">
<stop stop-color="#06AED4"/>
<stop offset="1" stop-color="#73E2A3"/>
</linearGradient>
</defs>
</svg>
