<svg width="76" height="30" viewBox="0 0 76 30" fill="none" xmlns="http://www.w3.org/2000/svg">
<path fill-rule="evenodd" clip-rule="evenodd" d="M22.881 21.0459C23.0476 21.4868 22.8253 21.9792 22.3845 22.1458C19.563 23.2122 16.4114 21.7894 15.3451 18.968L9.59357 3.74993C9.30001 2.9732 9.6917 2.10556 10.4684 1.812C12.954 0.872613 15.7304 2.12602 16.6698 4.61156L22.881 21.0459ZM10.2366 9.75494L10.2366 9.75495L10.2365 9.75496H8.33147C8.19474 9.75496 8.06085 9.76709 7.93081 9.79033C6.272 9.87672 4.72517 10.9593 4.15831 12.5857L1.09284 21.3809C0.996173 21.6582 1.14701 21.9475 1.42974 22.0271C3.23923 22.5364 5.20764 21.5103 5.82632 19.7352L8.16565 13.0234C8.37568 12.4208 8.94395 12.0171 9.58208 12.0171H10.6949L10.6987 12.0171C11.3273 12.0171 11.7527 11.3764 11.5088 10.797L11.1952 10.0523C11.1193 9.87211 10.9429 9.75494 10.7474 9.75494H10.2366Z" fill="url(#paint0_linear_382_2092)"/>
<path d="M25.2074 22V11.0909H28.0909V13.0156H28.2188C28.446 12.3764 28.8248 11.8722 29.3551 11.5028C29.8854 11.1335 30.5199 10.9489 31.2585 10.9489C32.0066 10.9489 32.6435 11.1359 33.169 11.5099C33.6946 11.8793 34.045 12.3812 34.2202 13.0156H34.3338C34.5563 12.3906 34.9588 11.8911 35.5412 11.517C36.1283 11.1383 36.822 10.9489 37.6222 10.9489C38.6402 10.9489 39.4664 11.2732 40.1009 11.9219C40.7401 12.5658 41.0597 13.4796 41.0597 14.6634V22H38.0412V15.2599C38.0412 14.6539 37.8802 14.1993 37.5582 13.8963C37.2363 13.5933 36.8338 13.4418 36.3509 13.4418C35.8016 13.4418 35.3731 13.617 35.0653 13.9673C34.7576 14.313 34.6037 14.7699 34.6037 15.3381V22H31.6705V15.196C31.6705 14.661 31.5166 14.2348 31.2088 13.9176C30.9058 13.6004 30.5057 13.4418 30.0085 13.4418C29.6723 13.4418 29.3693 13.527 29.0994 13.6974C28.8343 13.8632 28.6236 14.0975 28.4673 14.4006C28.3111 14.6989 28.233 15.0492 28.233 15.4517V22H25.2074ZM43.5064 22V7.45455H46.532V12.9233H46.6243C46.7569 12.6297 46.9486 12.3314 47.1996 12.0284C47.4553 11.7206 47.7867 11.465 48.1939 11.2614C48.6058 11.053 49.1172 10.9489 49.728 10.9489C50.5234 10.9489 51.2573 11.1572 51.9297 11.5739C52.602 11.9858 53.1394 12.6084 53.5419 13.4418C53.9444 14.2704 54.1456 15.3097 54.1456 16.5597C54.1456 17.7765 53.9491 18.804 53.5561 19.642C53.1679 20.4754 52.6375 21.1075 51.9652 21.5384C51.2976 21.9645 50.5495 22.1776 49.7209 22.1776C49.1338 22.1776 48.6342 22.0805 48.2223 21.8864C47.8151 21.6922 47.4813 21.4484 47.2209 21.1548C46.9605 20.8565 46.7616 20.5559 46.6243 20.2528H46.4893V22H43.5064ZM46.468 16.5455C46.468 17.1941 46.558 17.7599 46.7379 18.2429C46.9179 18.7259 47.1783 19.1023 47.5192 19.3722C47.8601 19.6373 48.2744 19.7699 48.7621 19.7699C49.2545 19.7699 49.6712 19.6349 50.0121 19.3651C50.353 19.0904 50.611 18.7116 50.7862 18.2287C50.9661 17.741 51.0561 17.1799 51.0561 16.5455C51.0561 15.9157 50.9685 15.3617 50.7933 14.8835C50.6181 14.4053 50.3601 14.0312 50.0192 13.7614C49.6783 13.4915 49.2592 13.3565 48.7621 13.3565C48.2696 13.3565 47.853 13.4867 47.5121 13.7472C47.1759 14.0076 46.9179 14.3769 46.7379 14.8551C46.558 15.3333 46.468 15.8968 46.468 16.5455ZM61.136 22.2131C60.0138 22.2131 59.0479 21.9858 58.2383 21.5312C57.4334 21.072 56.8131 20.4233 56.3775 19.5852C55.9419 18.7424 55.7241 17.7457 55.7241 16.5952C55.7241 15.473 55.9419 14.4882 56.3775 13.6406C56.8131 12.7931 57.4263 12.1326 58.217 11.6591C59.0124 11.1856 59.9452 10.9489 61.0153 10.9489C61.735 10.9489 62.4049 11.0649 63.0252 11.2969C63.6502 11.5241 64.1947 11.8674 64.6587 12.3267C65.1275 12.786 65.4921 13.3636 65.7525 14.0597C66.0129 14.7509 66.1431 15.5606 66.1431 16.4886V17.3196H56.9315V15.4446H63.2951C63.2951 15.009 63.2004 14.6231 63.011 14.2869C62.8216 13.9508 62.5588 13.688 62.2227 13.4986C61.8912 13.3045 61.5053 13.2074 61.065 13.2074C60.6057 13.2074 60.1985 13.3139 59.8434 13.527C59.493 13.7353 59.2184 14.017 59.0195 14.3722C58.8207 14.7225 58.7189 15.1132 58.7141 15.544V17.3267C58.7141 17.8665 58.8136 18.3329 59.0124 18.7259C59.216 19.1188 59.5025 19.4219 59.8718 19.6349C60.2411 19.848 60.6791 19.9545 61.1857 19.9545C61.5219 19.9545 61.8297 19.9072 62.109 19.8125C62.3884 19.7178 62.6275 19.5758 62.8263 19.3864C63.0252 19.197 63.1767 18.965 63.2809 18.6903L66.0792 18.875C65.9371 19.5473 65.646 20.1345 65.2056 20.6364C64.77 21.1335 64.2066 21.5218 63.5153 21.8011C62.8287 22.0758 62.0356 22.2131 61.136 22.2131ZM68.1175 22V11.0909H71.0508V12.9943H71.1644C71.3633 12.3172 71.6971 11.8059 72.1658 11.4602C72.6346 11.1098 73.1744 10.9347 73.7852 10.9347C73.9367 10.9347 74.1 10.9441 74.2752 10.9631C74.4504 10.982 74.6043 11.008 74.7369 11.0412V13.7259C74.5948 13.6832 74.3983 13.6454 74.1474 13.6122C73.8964 13.5791 73.6668 13.5625 73.4585 13.5625C73.0134 13.5625 72.6156 13.6596 72.2653 13.8537C71.9196 14.0431 71.645 14.3082 71.4414 14.6491C71.2425 14.9901 71.1431 15.383 71.1431 15.8281V22H68.1175Z" fill="white"/>
<defs>
<linearGradient id="paint0_linear_382_2092" x1="11.9999" y1="1.5" x2="11.9999" y2="22.5" gradientUnits="userSpaceOnUse">
<stop stop-color="#FF8B04"/>
<stop offset="1" stop-color="#E7E26E"/>
</linearGradient>
</defs>
</svg>
